PathFileType	4	(X/Y/Z)	T1_P2_NoVision_Movement_1_0-729.trc
DataRate	CameraRate	NumFrames	NumMarkers	Units	OrigDataRate	OrigDataStartFrame	OrigNumFrames
60	60	4	27	m	60	455	729
Frame#	Time	RHip			RKnee			RAnkle			RBigToe			RSmallToe			RHeel			LHip			LKnee			LAnkle			LBigToe			LSmallToe			LHeel			Neck			Head			Nose			RShoulder			RElbow			RWrist			RThumb			RIndex			RPinky			LShoulder			LElbow			LWrist			LThumb			LIndex			LPinky		
		X1	Y1	Z1	X2	Y2	Z2	X3	Y3	Z3	X4	Y4	Z4	X5	Y5	Z5	X6	Y6	Z6	X7	Y7	Z7	X8	Y8	Z8	X9	Y9	Z9	X10	Y10	Z10	X11	Y11	Z11	X12	Y12	Z12	X13	Y13	Z13	X14	Y14	Z14	X15	Y15	Z15	X16	Y16	Z16	X17	Y17	Z17	X18	Y18	Z18	X19	Y19	Z19	X20	Y20	Z20	X21	Y21	Z21	X22	Y22	Z22	X23	Y23	Z23	X24	Y24	Z24	X25	Y25	Z25	X26	Y26	Z26	X27	Y27	Z27
456	7.6	449.73506352584377	3622.2960586781373	553.1264439516417	884.5936044066646	3726.134289951739	598.2808818098868	1235.3430939171387	3702.694769141018	614.6985342268022	1331.049915852857	3636.5650335559603	611.1836788497735	1302.9462012524284	3634.433468565576	547.5501965834818	1273.3356035661157	3712.016101870864	641.758939899749	458.4497715418947	3526.207870494922	757.4940986274808	865.663013347055	3523.1973910360243	742.540555898188	1224.2268996420285	3590.651894382156	741.5176035638963	1325.0501907272555	3556.397122377082	689.0929359339016	1285.2177852509585	3476.802241683213	723.1241634653562	1265.974658996806	3617.6329703094566	734.4091174206832	-121.02514656840542	3529.4167631588166	648.7360296171079	-367.1309194473783	3478.2999409804734	620.6637972988646	-225.0043209441531	3445.6896296213235	598.0058459874574	-40.1385040625062	3639.0743467532634	544.1995268748609	205.36597184798137	3771.3464118025513	517.4114963550657	425.82252056755425	3672.217716705249	409.81061706020995	534.0742420202007	3639.3731626614217	401.2036045394404	553.278169987277	3675.062866723863	404.72356958515735	553.3439011995539	3701.988114081081	410.8828378892137	-23.039473851762903	3487.6655357991626	841.4247694789785	233.06962211370507	3472.498408839211	880.1969999125995	479.5169933961326	3431.7967046901003	852.6684235137167	581.2004680848481	3423.89494190959	814.8765913382623	591.3780743243778	3371.449879028287	812.1581241517606	591.9648781453341	3375.3812122675376	891.0499663014059
457	7.616666666666666	454.90507408215063	3626.2553767685554	554.2920879309452	869.7899622731869	3712.7314172550377	586.3253183991023	1235.345330504356	3702.4329376971264	614.613269837893	1333.7787752351069	3628.934844973337	613.2238447846851	1309.4058186405289	3638.130953013291	548.4161127871951	1268.7007118755607	3688.2738287114485	629.3495022237139	458.38671420223875	3526.2825499800833	757.3684705913093	871.54502818786	3544.2984797730787	749.463605286364	1224.194437604124	3593.115230113739	737.0973641325786	1326.0114108672512	3560.455666930938	685.5342534448033	1280.0639628202691	3475.4533104079965	721.2574559571284	1265.2625563029178	3619.6290022695534	730.3121231845155	-116.51222426759027	3546.3907852170714	662.5836927140087	-367.17701847944505	3478.5111396348607	620.7913836949187	-224.31434368822505	3425.9403557625487	592.2982482897874	-35.5307682152009	3643.195017932162	545.8302341228215	210.6434355649352	3775.2394839924696	518.6488969109396	428.49943071417687	3692.500707727031	413.9386692041913	537.7106928962678	3660.889403912865	405.2389566155302	550.1769531910406	3681.4136217167124	406.88539581654004	544.2934616140421	3683.2213958668835	397.51642513522233	-22.671509952598484	3508.931676035607	848.4158970793096	233.28189080636133	3472.6345269258845	880.1224546149506	479.54073990525944	3431.736808592111	852.6049196673695	581.1109955831837	3423.4885648706227	814.6476896024702	587.299510530421	3351.147228233519	804.8465478499246	588.439664491471	3364.028731583539	873.2280299390568
458	7.633333333333334	445.50780859611723	3627.3319107905613	555.5326889239429	869.6726242118126	3712.4745927625795	586.220158390109	1234.9857760323737	3701.970671309729	614.4301136723607	1333.9911797238988	3629.62638167547	613.4576493431563	1302.7997689212502	3633.9204387157174	547.329616197463	1262.5354448807338	3683.766803115311	631.868802439765	458.53349551601195	3526.632836626142	757.5135877046886	871.4208558891727	3544.123777804577	749.2433797906006	1224.2177400282712	3592.990831545912	736.8728802362422	1332.0702110354393	3564.2977546396564	686.2937129835824	1280.0235252949642	3475.263570282457	721.1573021031404	1265.3373582144252	3619.1613828504205	730.1155442261532	-120.64626892489247	3544.7452330971532	661.9016227179935	-367.2195807588777	3478.5477709974366	620.8006786652827	-224.40141523787554	3426.245955604859	592.4792444324869	-35.521163346310765	3643.187252627399	545.7866871034206	205.54541416766966	3773.1926799555995	513.0789895310556	419.8184321160173	3695.1633038805894	414.7711644195221	537.3617165154578	3660.092696294029	404.2971752873403	540.6574738684941	3663.090233775991	389.2929422353389	540.6824167011456	3687.2288707805023	398.8000977335389	-22.611564653925523	3508.7799012999944	848.3306855979364	233.42824798470252	3472.5816791099123	880.1369063938326	479.5757354000503	3431.6664040354435	852.5258065606658	581.0877872045518	3423.527165658671	814.5379735186514	587.3185211130154	3351.054255582765	804.7926378086768	588.4395281550057	3364.008449152643	873.4015947421202
459	7.65	453.8065222020101	3652.4860479215167	562.301463622898	863.7105145270784	3695.639056547333	572.9168212599203	1234.9351042186706	3700.0467120616195	615.3981843916869	1326.8636311225982	3624.9051060955694	612.5821649519656	1302.6138588483477	3633.716661315274	547.4378622625813	1259.6529915253643	3686.673223486242	635.6110583564606	458.49153008830416	3527.0187642596106	757.7344562609086	871.7612697840437	3544.8105536472076	749.585555901309	1217.3349895212518	3588.539956924447	736.0469155666027	1325.0738006237098	3556.4384025789627	689.0458444758348	1279.9439323927627	3475.161191110693	721.4147540136862	1264.09031560562	3614.2599201063726	734.6757154920776	-121.12913895846971	3529.656221074676	648.8866241660746	-367.2870527280879	3478.6359394225974	620.9211049586398	-224.45864004206055	3426.345116023991	592.6419386650853	-40.12094999007076	3647.4809174288966	547.9417963748309	205.50292245805156	3771.6821609801123	517.5683966386578	419.67121764832586	3695.381844147418	414.8750827490341	535.0326299886605	3677.8754222352327	406.8890561735622	540.3278854723256	3662.755477608395	388.8790769166285	544.3976665318331	3703.6079236826995	411.448111920993	-18.690353730689335	3491.1745379820145	843.0813189851289	233.16245378275153	3472.9025922140677	880.4119468143425	479.5722953046913	3432.191261665837	852.8839952021386	580.8898555881519	3424.1233864381843	814.5763669810789	587.2058867525326	3351.5801176547734	804.9989368924378	592.7282629575309	3365.8117833547017	874.6971430186207
